<?xml version="1.0" encoding="UTF-8" standalone="no"?><!DOCTYPE svg PUBLIC "-//W3C//DTD SVG 1.1//EN" "http://www.w3.org/Graphics/SVG/1.1/DTD/svg11.dtd"><svg width="100%" height="100%" viewBox="0 0 13563 1396" version="1.1" xmlns="http://www.w3.org/2000/svg" xmlns:xlink="http://www.w3.org/1999/xlink" xml:space="preserve" xmlns:serif="http://www.serif.com/" style="fill-rule:evenodd;clip-rule:evenodd;stroke-linejoin:round;stroke-miterlimit:2;"><path d="M351.075,233.533c-18.954,-49.262 -34.071,-88.4 -34.071,-104.821c0,-8.825 2.458,-18.95 16.421,-25.245c11.354,-5.063 34.071,-6.363 47.958,-6.363c8.896,0 12.659,-2.462 12.659,-8.829c-0,-6.292 -11.359,-8.825 -34.071,-8.825c-48.034,0 -104.892,3.838 -117.475,3.838c-15.192,-0 -87.171,-3.838 -147.788,-3.838c-20.254,0 -32.912,1.304 -32.912,8.825c-0,5.138 2.604,8.829 10.125,8.829c7.596,0 29.079,0 48.033,5.133c44.2,12.588 63.15,26.475 90.929,97.221l309.463,774.234c24.016,60.691 30.308,78.346 45.5,78.346c12.587,-0 17.65,-20.184 53.021,-95.996c29.083,-61.846 85.866,-198.275 162.979,-382.738c64.379,-155.312 127.533,-306.929 141.421,-342.233c34.141,-85.938 53.096,-107.421 69.516,-118.779c23.946,-15.188 51.721,-15.188 60.546,-15.188c10.129,0 15.192,-2.462 15.192,-8.829c-0,-6.292 -7.596,-8.825 -21.413,-8.825c-36.675,-0 -91,3.837 -98.596,3.837c-15.116,0 -73.204,-3.837 -123.77,-3.837c-20.184,-0 -27.775,2.533 -27.775,10.129c-0,6.367 6.291,7.525 13.887,7.525c13.888,0 32.842,0 48.033,5.133c12.584,6.221 16.421,18.88 16.421,29.009c0,11.358 -5.066,29.008 -11.429,48.033c-27.708,90.929 -196.979,531.754 -270.258,700.954l-242.546,-646.7Z" style="fill:#231f20;fill-rule:nonzero;"/><path d="M1031.89,915.658c-21.484,54.325 -42.896,92.159 -93.459,98.521c-8.825,1.234 -25.246,2.463 -32.841,2.463c-5.063,-0 -10.13,3.833 -10.13,8.896c0,6.295 7.596,8.9 21.488,8.9c45.5,-0 101.054,-3.838 112.412,-3.838c12.659,0 73.28,3.838 99.825,3.838c10.055,-0 16.421,-2.605 16.421,-8.9c0,-5.063 -2.533,-8.896 -11.358,-8.896l-10.125,-0c-18.954,-0 -37.904,-7.525 -37.904,-29.009c-0,-18.954 6.291,-45.5 16.42,-71.975l63.15,-171.804c2.534,-6.291 6.292,-8.825 11.359,-8.825l256.437,0c6.292,0 7.596,1.3 10.054,6.292l99.826,246.312c7.595,17.65 -3.763,26.546 -10.125,29.009c-5.067,2.604 -7.525,2.604 -7.525,7.666c-0,6.292 17.65,6.292 39.133,7.525c77.042,2.605 159.146,2.605 175.567,2.605c12.658,-0 25.245,-2.605 25.245,-8.9c0,-6.292 -7.525,-8.896 -13.887,-8.896c-11.358,-0 -27.779,-1.229 -44.2,-6.221c-24.017,-7.596 -54.325,-21.488 -94.763,-117.479c-68.216,-162.975 -246.312,-606.338 -266.491,-651.763c-11.359,-24.016 -15.121,-39.208 -26.55,-39.208c-7.596,-0 -12.588,6.367 -26.475,41.737l-261.504,671.95Zm160.445,-224.829c-3.758,0 -5.062,-2.604 -3.758,-7.596l103.512,-294.27c6.367,-16.492 12.663,-16.492 18.955,-0l109.883,294.27c1.3,4.992 1.3,7.596 -3.763,7.596l-224.829,0Z" style="fill:#231f20;fill-rule:nonzero;"/><path d="M2013.36,532.917c-0,-166.738 -0,-197.05 1.304,-231.121c2.458,-37.904 8.825,-54.325 41.666,-60.617c12.588,-1.304 29.009,-2.533 36.604,-2.533c3.759,-0 8.826,-3.833 8.826,-7.596c-0,-6.367 -6.296,-8.825 -17.655,-8.825c-34.141,0 -117.475,2.458 -122.537,2.458c-6.296,0 -75.813,-2.458 -126.304,-2.458c-12.659,0 -17.721,2.458 -17.721,8.825c-0,3.763 5.062,8.825 8.896,8.825c10.054,0 29.008,1.304 37.833,2.533c36.675,5.063 42.971,22.788 45.5,59.388c2.533,34.071 2.533,64.383 2.533,231.121l0,189.454c0,103.587 0,188.221 -6.295,232.421c-5.063,31.612 -7.596,51.795 -29.08,56.858c-10.054,2.529 -24.016,4.992 -34.07,4.992c-6.367,-0 -8.825,5.133 -8.825,8.896c-0,6.295 6.295,8.899 17.65,8.899c17.65,0.001 41.666,-1.304 64.383,-2.604c21.483,-1.233 40.433,-1.233 45.5,-1.233c32.842,0 70.746,1.233 121.237,2.533c51.796,2.534 113.717,3.763 193.288,3.763c59.387,-0 63.15,-3.763 70.746,-29.079c8.825,-31.542 16.35,-95.996 16.35,-107.35c-0,-11.359 -2.463,-16.421 -7.525,-16.421c-6.292,-0 -10.125,6.292 -11.359,13.962c-3.833,21.484 -12.658,44.125 -26.545,60.617c-26.55,31.542 -75.813,32.842 -133.9,32.842c-87.167,-0 -130.063,-7.667 -147.784,-25.317c-20.183,-18.883 -22.716,-83.333 -22.716,-241.25l-0,-191.983Z" style="fill:#231f20;fill-rule:nonzero;"/><path d="M2588.04,722.375c-0,103.592 -0,188.225 -6.292,232.425c-5.067,31.538 -7.596,53.021 -29.079,56.858c-10.059,1.3 -24.017,4.988 -34.075,4.988c-6.363,-0 -8.896,5.137 -8.896,8.829c-0,6.363 6.367,8.896 17.725,8.896c17.65,-0 42.896,-1.229 64.379,-2.533c24.017,-1.23 45.5,-1.23 48.033,-1.23c16.421,0 45.425,0 92.23,2.534c45.429,1.229 109.883,3.762 193.216,3.762c42.967,0 54.325,0 61.921,-27.779c6.292,-22.787 15.117,-95.992 15.117,-103.587c-0,-7.525 -1.229,-16.421 -7.521,-16.421c-6.367,-0 -8.9,3.762 -11.429,16.421c-6.296,42.966 -21.488,61.92 -50.492,74.579c-29.083,11.358 -82.104,11.358 -111.183,11.358c-109.884,0 -130.067,-13.962 -132.596,-85.937c-1.304,-21.484 -0,-146.484 -0,-183.163l-0,-89.625c-0,-3.833 1.3,-7.667 7.521,-7.667c19.025,0 137.733,1.3 168.041,5.134c42.896,4.991 53.025,17.654 56.859,32.841c5.062,13.892 5.062,25.175 5.062,35.305c0,6.362 2.459,10.2 7.525,10.2c7.596,-0 10.125,-11.434 10.125,-20.33c0,-7.525 2.534,-47.958 5.067,-69.445c2.529,-35.371 8.825,-53.021 8.825,-59.317c-0,-6.367 -2.533,-8.896 -6.296,-8.896c-3.762,0 -8.825,6.367 -16.421,13.888c-11.354,11.429 -27.85,12.658 -54.325,15.191c-25.246,2.534 -171.804,2.534 -185.691,2.534c-6.292,-0 -6.292,-3.763 -6.292,-11.359l-0,-291.812c-0,-7.521 1.3,-11.354 6.292,-11.354c12.658,-0 141.491,1.229 160.445,3.833c60.621,7.521 71.975,15.117 79.571,32.842c5.063,12.658 6.296,30.308 6.296,37.829c0,8.829 2.529,13.962 8.825,13.962c5.063,0 8.896,-6.366 10.125,-11.429c2.533,-12.658 5.067,-60.617 6.296,-70.675c2.529,-30.308 8.825,-42.967 8.825,-50.562c-0,-5.063 -1.229,-10.13 -4.992,-10.13c-5.062,0 -10.129,3.834 -15.191,5.067c-8.825,1.3 -29.009,5.063 -50.492,6.292c-25.246,1.304 -257.667,-0 -265.263,-0c-6.366,-0 -78.341,-2.459 -128.833,-2.459c-12.662,0 -17.725,2.459 -17.725,8.825c0,3.763 5.063,8.825 8.9,8.825c10.054,0 29.004,1.3 37.829,2.534c36.675,5.062 42.971,22.783 45.504,59.387c2.53,34.071 2.53,64.379 2.53,231.121l-0,189.45Z" style="fill:#231f20;fill-rule:nonzero;"/><path d="M3318.1,381.313c34.141,37.904 159.141,169.27 287.975,304.466c117.479,122.471 277.925,280.384 289.279,290.513c61.85,56.858 73.279,65.683 84.638,65.683c7.595,0 8.825,-6.296 8.825,-77.113l2.533,-628.979c-0,-64.454 2.529,-85.866 39.133,-93.462c12.659,-2.529 21.484,-2.529 26.546,-2.529c7.596,-0 12.663,-6.367 12.663,-10.13c-0,-6.366 -8.825,-7.525 -20.255,-7.525c-45.429,0 -82.104,2.463 -94.691,2.463c-12.659,0 -65.684,-2.463 -116.246,-2.463c-12.588,0 -21.488,1.159 -21.488,7.525c0,3.763 1.305,10.13 8.9,10.13c8.825,-0 34.071,1.3 54.325,4.991c34.071,6.363 40.363,30.379 41.667,99.825l11.358,538.121c-34.145,-35.446 -152.85,-162.975 -262.733,-276.692c-171.804,-176.795 -333.479,-348.595 -351.129,-366.245c-11.429,-11.359 -30.308,-32.842 -42.967,-32.842c-8.825,-0 -15.191,11.354 -15.191,54.325l-0,615.162c-0,97.151 -3.763,126.301 -31.542,133.826c-16.421,5.062 -36.675,6.291 -45.5,6.291c-4.992,0 -8.825,3.833 -8.825,8.825c-0,7.671 6.296,8.9 17.65,8.9c50.566,0 97.296,-3.762 107.425,-3.762c10.125,-0 54.325,3.762 117.475,3.762c12.587,0 20.183,-2.533 20.183,-8.9c0,-4.992 -3.833,-8.825 -8.825,-8.825c-10.129,0 -35.375,-1.229 -55.558,-6.291c-30.308,-7.525 -40.433,-34.071 -42.967,-122.471l-12.658,-506.579Z" style="fill:#231f20;fill-rule:nonzero;"/><path d="M4578.71,271.467l138.959,2.529c106.12,2.462 130.066,26.479 133.825,59.317l1.304,11.433c1.3,15.187 3.762,18.879 8.825,18.879c5.062,0 10.125,-4.992 10.125,-13.892c-0,-12.583 3.837,-89.625 3.837,-122.466c0,-6.292 0,-12.659 -5.066,-12.659c-5.063,0 -15.192,2.534 -31.613,5.063c-17.65,2.533 -42.966,5.062 -79.571,5.062l-419.341,0c-12.659,0 -55.554,-1.3 -87.167,-5.062c-30.312,-3.833 -41.667,-12.658 -49.262,-12.658c-3.763,-0 -10.13,13.962 -11.359,20.254c-2.529,8.825 -24.016,104.816 -24.016,116.175c-0,6.291 5.066,8.825 7.595,8.825c5.063,-0 8.825,-1.229 11.359,-10.054c3.762,-7.596 5.062,-15.121 17.721,-34.146c16.42,-25.246 42.895,-32.767 112.341,-34.071l160.446,-2.529l0,450.883c0,103.588 0,188.221 -5.062,232.421c-3.763,31.612 -10.055,53.096 -32.842,58.158c-10.129,2.459 -22.717,4.992 -32.842,4.992c-6.291,-0 -8.825,3.833 -8.825,7.596c0,6.366 5.063,8.896 17.721,8.896c32.842,-0 109.883,-3.834 114.875,-3.834c6.367,0 77.038,3.834 137.729,3.834c12.663,-0 17.65,-3.834 17.65,-8.896c0,-3.763 -1.229,-8.825 -8.825,-8.825c-10.125,-0 -35.371,-2.459 -50.491,-5.063c-34.142,-5.066 -39.205,-25.246 -42.967,-56.858c-5.063,-44.2 -5.063,-128.833 -5.063,-232.421l0,-450.883Z" style="fill:#231f20;fill-rule:nonzero;"/><path d="M5106.67,722.375c-0,103.592 -0,188.225 -6.296,232.425c-5.063,31.538 -7.592,53.021 -29.079,56.858c-10.055,1.3 -24.017,4.988 -34.071,4.988c-6.367,-0 -8.896,5.137 -8.896,8.829c0,6.363 6.367,8.896 17.721,8.896c17.65,-0 42.896,-1.229 64.383,-2.533c24.017,-1.23 45.5,-1.23 48.029,-1.23c16.421,0 45.43,0 92.234,2.534c45.429,1.229 109.879,3.762 193.212,3.762c42.971,0 54.329,0 61.925,-27.779c6.292,-22.787 15.117,-95.992 15.117,-103.587c-0,-7.525 -1.229,-16.421 -7.525,-16.421c-6.363,-0 -8.896,3.762 -11.429,16.421c-6.292,42.966 -21.484,61.92 -50.492,74.579c-29.079,11.358 -82.104,11.358 -111.183,11.358c-109.88,0 -130.063,-13.962 -132.596,-85.937c-1.3,-21.484 -0,-146.484 -0,-183.163l-0,-89.625c-0,-3.833 1.304,-7.667 7.525,-7.667c19.025,0 137.729,1.3 168.041,5.134c42.896,4.991 53.021,17.654 56.859,32.841c5.062,13.892 5.062,25.175 5.062,35.305c0,6.362 2.459,10.2 7.521,10.2c7.596,-0 10.129,-11.434 10.129,-20.33c0,-7.525 2.534,-47.958 5.063,-69.445c2.533,-35.371 8.825,-53.021 8.825,-59.317c-0,-6.367 -2.529,-8.896 -6.292,-8.896c-3.762,0 -8.825,6.367 -16.421,13.888c-11.358,11.429 -27.85,12.658 -54.325,15.191c-25.246,2.534 -171.804,2.534 -185.691,2.534c-6.296,-0 -6.296,-3.763 -6.296,-11.359l-0,-291.812c-0,-7.521 1.304,-11.354 6.296,-11.354c12.658,-0 141.491,1.229 160.445,3.833c60.617,7.521 71.975,15.117 79.571,32.842c5.063,12.658 6.292,30.308 6.292,37.829c-0,8.829 2.533,13.962 8.825,13.962c5.067,0 8.9,-6.366 10.129,-11.429c2.533,-12.658 5.063,-60.617 6.292,-70.675c2.533,-30.308 8.825,-42.967 8.825,-50.562c-0,-5.063 -1.229,-10.13 -4.988,-10.13c-5.066,0 -10.129,3.834 -15.191,5.067c-8.825,1.3 -29.009,5.063 -50.492,6.292c-25.246,1.304 -257.671,-0 -265.267,-0c-6.362,-0 -78.341,-2.459 -128.833,-2.459c-12.658,0 -17.721,2.459 -17.721,8.825c0,3.763 5.063,8.825 8.896,8.825c10.054,0 29.008,1.3 37.833,2.534c36.675,5.062 42.971,22.783 45.5,59.387c2.534,34.071 2.534,64.379 2.534,231.121l-0,189.45Z" style="fill:#231f20;fill-rule:nonzero;"/><path d="M6842.17,927.029c-0,21.484 -8.896,35.3 -25.246,44.196c-32.838,18.954 -98.521,26.55 -144.025,26.55c-116.171,0 -231.117,-37.904 -330.946,-135.2c-44.196,-42.896 -133.896,-171.804 -133.896,-349.9c0,-147.783 51.796,-262.658 125.071,-320.817c95.996,-75.737 190.758,-83.333 270.329,-83.333c162.904,0 265.263,54.325 296.8,102.358c18.954,30.309 25.246,65.609 26.55,83.334c1.229,11.354 2.533,18.95 8.825,18.95c8.825,-0 11.359,-6.292 11.359,-26.617c-0.001,-126.304 8.824,-161.604 8.824,-179.329c0,-4.992 -2.458,-10.125 -15.12,-11.283c-31.609,-1.305 -75.809,-6.367 -102.359,-12.659c-23.941,-5.062 -113.641,-21.483 -193.212,-21.483c-97.296,-0 -222.296,8.825 -336.013,79.571c-112.412,70.746 -210.937,213.466 -210.937,415.579c-0,157.842 73.279,293.042 150.321,359.954c140.191,122.542 319.587,135.2 415.579,135.2c73.279,0 186.925,-13.962 267.796,-56.929c15.12,-8.825 16.421,-11.358 16.421,-68.142l-0.001,-141.496c0.001,-53.02 0.001,-90.925 2.463,-131.291c2.604,-44.271 12.658,-65.754 46.729,-72.121c15.192,-2.458 22.788,-3.688 31.613,-3.688c5.062,0 10.125,-2.533 10.125,-7.595c-0,-7.596 -6.292,-10.059 -20.255,-10.059c-37.904,0 -117.475,3.692 -123.77,3.692c-6.292,-0 -85.863,-3.692 -142.721,-3.692c-13.892,0 -20.184,2.463 -20.184,10.059c0.001,5.062 5.063,7.595 10.13,7.595c11.283,0 32.766,1.23 42.896,3.688c50.562,13.962 56.854,27.85 56.854,130.137l-0,214.771Z" style="fill:#231f20;fill-rule:nonzero;"/><path d="M7175.62,626.371c0,193.287 130.063,421.875 434.533,421.875c267.721,-0 445.817,-198.279 445.817,-438.296c0,-250.075 -189.45,-402.925 -439.525,-402.925c-306.929,0 -440.825,246.313 -440.825,419.346Zm114.946,-29.009c-0,-233.724 133.896,-349.9 319.587,-349.9c175.563,0.001 332.175,135.13 332.175,392.796c0,310.763 -200.808,363.863 -300.637,363.863c-200.809,-0 -351.125,-156.688 -351.125,-406.759Z" style="fill:#231f20;fill-rule:nonzero;"/><path d="M8322.5,381.313c34.146,37.904 159.146,169.27 287.979,304.466c117.475,122.471 277.921,280.384 289.279,290.513c61.85,56.858 73.28,65.683 84.638,65.683c7.596,0 8.825,-6.296 8.825,-77.113l2.529,-628.979c-0,-64.454 2.533,-85.866 39.137,-93.462c12.659,-2.529 21.484,-2.529 26.546,-2.529c7.596,-0 12.659,-6.367 12.659,-10.13c-0,-6.366 -8.825,-7.525 -20.255,-7.525c-45.425,0 -82.104,2.463 -94.687,2.463c-12.663,0 -65.683,-2.463 -116.25,-2.463c-12.588,0 -21.483,1.159 -21.483,7.525c-0,3.763 1.304,10.13 8.896,10.13c8.829,-0 34.074,1.3 54.329,4.991c34.071,6.363 40.362,30.379 41.666,99.825l11.355,538.121c-34.142,-35.446 -152.851,-162.975 -262.73,-276.692c-171.804,-176.795 -333.479,-348.595 -351.129,-366.245c-11.429,-11.359 -30.308,-32.842 -42.971,-32.842c-8.825,-0 -15.187,11.354 -15.187,54.325l-0,615.162c-0,97.151 -3.763,126.301 -31.542,133.826c-16.421,5.062 -36.675,6.291 -45.5,6.291c-4.991,0 -8.825,3.833 -8.825,8.825c0,7.671 6.292,8.9 17.65,8.9c50.567,0 97.296,-3.762 107.421,-3.762c10.129,-0 54.329,3.762 117.479,3.762c12.588,0 20.184,-2.533 20.184,-8.9c-0,-4.992 -3.838,-8.825 -8.83,-8.825c-10.125,0 -35.37,-1.229 -55.554,-6.291c-30.308,-7.525 -40.437,-34.071 -42.966,-122.471l-12.663,-506.579Z" style="fill:#231f20;fill-rule:nonzero;"/><path d="M9655.12,1046.98c13.888,1.3 27.779,1.3 42.971,1.3c71.975,0 155.308,-6.291 200.808,-23.941c18.954,-7.667 21.484,-11.43 27.779,-31.613c11.355,-36.675 26.546,-130.133 26.546,-137.658c0,-7.667 -5.062,-15.192 -10.125,-15.192c-7.596,0 -8.825,3.763 -11.358,15.192c-3.833,20.183 -18.954,65.608 -42.967,89.625c-44.2,44.2 -99.754,50.491 -183.162,50.491c-237.413,0 -400.392,-183.087 -400.392,-389.033c0,-108.65 17.725,-204.571 99.754,-280.379c39.209,-36.675 107.425,-74.508 250.146,-74.508c98.525,-0 179.325,26.475 218.533,59.316c29.009,22.788 46.73,65.754 46.73,107.421c-0,15.192 1.229,22.717 8.825,22.717c6.295,-0 11.358,-6.367 12.662,-22.717c1.229,-15.192 1.229,-74.579 2.529,-109.954c2.534,-39.133 4.992,-51.792 4.992,-60.617c-0,-6.296 -2.459,-11.358 -13.888,-11.358c-36.604,-1.304 -71.979,-11.358 -113.646,-17.65c-54.324,-8.825 -117.474,-11.358 -161.674,-11.358c-170.571,-0 -271.63,50.491 -338.542,114.945c-98.521,95.992 -125,220.992 -125,292.967c-0,102.358 26.479,224.9 135.129,318.363c70.746,60.616 157.842,98.525 276.621,111.183l-80.875,65.608c-11.358,8.9 -16.421,13.892 -16.421,17.725c0,4.992 5.063,7.596 18.954,11.354c74.579,21.488 90.929,55.559 90.929,92.234c0,45.5 -49.191,71.975 -93.462,77.037c-13.888,1.304 -25.246,2.463 -25.246,13.892c0,6.367 7.596,10.054 16.421,10.054c24.016,0 64.454,-7.525 98.525,-22.642c42.967,-17.725 89.7,-54.325 89.7,-103.662c-0,-51.792 -48.033,-82.1 -126.304,-89.625c8.825,-8.825 49.262,-46.804 74.508,-69.517Z" style="fill:#231f20;fill-rule:nonzero;"/><path d="M10125,915.658c-21.483,54.325 -42.896,92.159 -93.458,98.521c-8.825,1.234 -25.246,2.463 -32.842,2.463c-5.066,-0 -10.129,3.833 -10.129,8.896c0,6.295 7.596,8.9 21.484,8.9c45.504,-0 101.058,-3.838 112.416,-3.838c12.659,0 73.275,3.838 99.825,3.838c10.054,-0 16.421,-2.605 16.421,-8.9c0,-5.063 -2.533,-8.896 -11.358,-8.896l-10.125,-0c-18.954,-0 -37.909,-7.525 -37.909,-29.009c0,-18.954 6.296,-45.5 16.421,-71.975l63.154,-171.804c2.529,-6.291 6.292,-8.825 11.354,-8.825l256.442,0c6.292,0 7.592,1.3 10.054,6.292l99.825,246.312c7.596,17.65 -3.762,26.546 -10.129,29.009c-5.062,2.604 -7.521,2.604 -7.521,7.666c0,6.292 17.65,6.292 39.134,7.525c77.041,2.605 159.146,2.605 175.566,2.605c12.659,-0 25.246,-2.605 25.246,-8.9c0,-6.292 -7.525,-8.896 -13.891,-8.896c-11.355,-0 -27.775,-1.229 -44.196,-6.221c-24.017,-7.596 -54.325,-21.488 -94.763,-117.479c-68.216,-162.975 -246.312,-606.338 -266.496,-651.763c-11.354,-24.016 -15.116,-39.208 -26.545,-39.208c-7.596,-0 -12.588,6.367 -26.475,41.737l-261.505,671.95Zm160.446,-224.829c-3.762,0 -5.062,-2.604 -3.762,-7.596l103.516,-294.27c6.367,-16.492 12.659,-16.492 18.955,-0l109.879,294.27c1.304,4.992 1.304,7.596 -3.759,7.596l-224.829,0Z" style="fill:#231f20;fill-rule:nonzero;"/><path d="M11106.4,532.917c-0,-166.738 -0,-197.05 1.304,-231.121c2.458,-37.904 8.825,-54.325 41.667,-60.617c12.583,-1.304 29.004,-2.533 36.6,-2.533c3.762,-0 8.825,-3.833 8.825,-7.596c-0,-6.367 -6.292,-8.825 -17.65,-8.825c-34.142,0 -117.475,2.458 -122.538,2.458c-6.296,0 -75.813,-2.458 -126.304,-2.458c-12.658,0 -17.721,2.458 -17.721,8.825c0,3.763 5.063,8.825 8.896,8.825c10.054,0 29.008,1.304 37.833,2.533c36.675,5.063 42.967,22.788 45.5,59.388c2.533,34.071 2.533,64.383 2.533,231.121l0.001,189.454c-0.001,103.587 -0.001,188.221 -6.296,232.421c-5.063,31.612 -7.596,51.795 -29.079,56.858c-10.055,2.529 -24.017,4.992 -34.071,4.992c-6.367,-0 -8.825,5.133 -8.825,8.896c-0,6.295 6.291,8.899 17.65,8.899c17.65,0.001 41.666,-1.304 64.379,-2.604c21.487,-1.233 40.437,-1.233 45.504,-1.233c32.837,0 70.746,1.233 121.238,2.533c51.791,2.534 113.712,3.763 193.287,3.763c59.388,-0 63.15,-3.763 70.746,-29.079c8.825,-31.542 16.346,-95.996 16.346,-107.35c-0,-11.359 -2.459,-16.421 -7.521,-16.421c-6.296,-0 -10.129,6.292 -11.358,13.962c-3.834,21.484 -12.659,44.125 -26.546,60.617c-26.55,31.542 -75.813,32.842 -133.9,32.842c-87.167,-0 -130.063,-7.667 -147.788,-25.317c-20.179,-18.883 -22.712,-83.333 -22.712,-241.25l-0,-191.983Z" style="fill:#231f20;fill-rule:nonzero;"/><path d="M11663.5,353.554c-16.42,-42.966 -30.308,-75.808 -30.308,-89.625c0,-7.671 1.3,-13.962 12.658,-19.025c10.13,-3.762 27.78,-4.992 40.367,-4.992c7.592,0 11.429,-5.137 11.429,-10.129c0,-5.062 -10.129,-7.521 -30.312,-7.521c-42.967,0 -92.229,2.459 -103.588,2.459c-13.887,-0 -77.037,-2.459 -130.133,-2.459c-17.654,0 -29.008,1.155 -29.008,7.521c-0,3.763 2.529,10.129 8.825,10.129c6.291,0 25.245,0 42.966,3.763c36.604,8.896 51.796,20.254 77.042,80.871l272.787,658.058c21.484,51.796 29.079,65.684 41.738,65.684c11.358,-0 17.65,-16.421 47.958,-80.871c25.321,-53.025 74.508,-169.271 142.725,-325.884c56.859,-131.366 111.183,-260.2 123.771,-290.512c29.079,-73.275 46.729,-88.396 61.921,-98.45c20.183,-12.658 45.5,-12.658 53.025,-12.658c8.825,-0 12.658,-5.138 12.658,-10.13c0,-5.062 -6.296,-7.52 -17.65,-7.52c-32.917,-0 -80.875,2.458 -87.171,2.458c-13.887,-0 -64.45,-2.458 -108.65,-2.458c-17.65,-0 -25.246,2.458 -25.246,8.825c0,4.991 6.292,8.825 12.659,8.825c12.587,-0 25.246,-0 37.833,3.762c11.358,3.758 15.192,13.888 15.192,22.713c-0,8.895 -5.063,24.016 -10.129,40.437c-24.017,77.038 -169.196,443.358 -233.65,587.383l-209.709,-540.654Z" style="fill:#231f20;fill-rule:nonzero;"/><path d="M12454.2,722.375c-0,103.592 -0,188.225 -6.292,232.425c-5.067,31.538 -7.596,53.021 -29.079,56.858c-10.059,1.3 -24.017,4.988 -34.075,4.988c-6.363,-0 -8.896,5.137 -8.896,8.829c0,6.363 6.367,8.896 17.725,8.896c17.65,-0 42.896,-1.229 64.379,-2.533c24.017,-1.23 45.5,-1.23 48.033,-1.23c16.421,0 45.425,0 92.23,2.534c45.429,1.229 109.883,3.762 193.216,3.762c42.967,0 54.325,0 61.921,-27.779c6.292,-22.787 15.117,-95.992 15.117,-103.587c-0,-7.525 -1.229,-16.421 -7.521,-16.421c-6.367,-0 -8.9,3.762 -11.429,16.421c-6.296,42.966 -21.488,61.92 -50.492,74.579c-29.083,11.358 -82.104,11.358 -111.183,11.358c-109.883,0 -130.067,-13.962 -132.596,-85.937c-1.304,-21.484 0,-146.484 0,-183.163l0,-89.625c0,-3.833 1.3,-7.667 7.521,-7.667c19.025,0 137.733,1.3 168.042,5.134c42.895,4.991 53.025,17.654 56.858,32.841c5.062,13.892 5.062,25.175 5.062,35.305c0,6.362 2.459,10.2 7.525,10.2c7.596,-0 10.125,-11.434 10.125,-20.33c0,-7.525 2.534,-47.958 5.067,-69.445c2.529,-35.371 8.825,-53.021 8.825,-59.317c0,-6.367 -2.533,-8.896 -6.296,-8.896c-3.762,0 -8.825,6.367 -16.421,13.888c-11.354,11.429 -27.85,12.658 -54.325,15.191c-25.245,2.534 -171.804,2.534 -185.691,2.534c-6.292,-0 -6.292,-3.763 -6.292,-11.359l0,-291.812c0,-7.521 1.3,-11.354 6.292,-11.354c12.658,-0 141.491,1.229 160.446,3.833c60.62,7.521 71.975,15.117 79.57,32.842c5.063,12.658 6.296,30.308 6.296,37.829c0,8.829 2.529,13.962 8.825,13.962c5.063,0 8.896,-6.366 10.125,-11.429c2.534,-12.658 5.067,-60.617 6.296,-70.675c2.529,-30.308 8.825,-42.967 8.825,-50.562c0,-5.063 -1.229,-10.13 -4.992,-10.13c-5.062,0 -10.129,3.834 -15.191,5.067c-8.825,1.3 -29.009,5.063 -50.492,6.292c-25.246,1.304 -257.667,-0 -265.262,-0c-6.367,-0 -78.342,-2.459 -128.834,-2.459c-12.662,0 -17.725,2.459 -17.725,8.825c0,3.763 5.063,8.825 8.9,8.825c10.054,0 29.004,1.3 37.829,2.534c36.675,5.062 42.971,22.783 45.505,59.387c2.529,34.071 2.529,64.379 2.529,231.121l-0,189.45Z" style="fill:#231f20;fill-rule:nonzero;"/><path d="M13218.3,1048.25c60.621,0 130.067,-7.525 176.796,-37.833c79.571,-51.796 103.588,-120.084 103.588,-183.234c-0,-92.158 -46.729,-166.666 -181.859,-258.895l-31.612,-21.488c-109.879,-74.508 -143.95,-113.642 -143.95,-181.858c-0,-75.809 66.912,-116.246 147.783,-116.246c99.754,-0 136.429,40.437 143.954,53.096c6.367,11.358 15.192,40.366 16.421,53.025c1.304,8.825 2.534,13.887 10.129,13.887c7.592,0 8.896,-7.596 8.896,-24.016c0,-73.205 4.992,-108.65 4.992,-113.642c-0,-6.367 -2.534,-7.596 -11.359,-7.596c-8.825,0 -17.72,0 -39.133,-5.062c-26.55,-6.296 -70.746,-12.588 -114.946,-12.588c-146.558,0 -246.312,75.738 -246.312,202.042c-0,74.579 39.137,140.262 159.146,229.887l50.491,37.98c98.525,73.204 140.192,109.808 140.192,186.92c0,80.8 -56.788,142.65 -166.667,142.65c-74.583,0 -157.916,-27.779 -175.637,-106.12c-3.763,-15.117 -3.763,-30.238 -3.763,-39.134c0,-8.825 -3.762,-12.587 -10.054,-12.587c-6.366,-0 -8.896,6.366 -8.896,17.725c-1.233,17.65 -6.295,60.616 -6.295,113.641c-0,29.009 1.229,32.842 16.42,40.438c45.5,21.483 109.884,29.008 161.675,29.008Z" style="fill:#231f20;fill-rule:nonzero;"/></svg>