<?xml version="1.0" encoding="UTF-8" standalone="no"?><!DOCTYPE svg PUBLIC "-//W3C//DTD SVG 1.1//EN" "http://www.w3.org/Graphics/SVG/1.1/DTD/svg11.dtd"><svg width="100%" height="100%" viewBox="0 0 3255 335" version="1.1" xmlns="http://www.w3.org/2000/svg" xmlns:xlink="http://www.w3.org/1999/xlink" xml:space="preserve" xmlns:serif="http://www.serif.com/" style="fill-rule:evenodd;clip-rule:evenodd;stroke-linejoin:round;stroke-miterlimit:2;"><path d="M84.258,56.048c-4.549,-11.823 -8.177,-21.216 -8.177,-25.157c-0,-2.118 0.59,-4.548 3.941,-6.059c2.725,-1.215 8.177,-1.527 11.51,-1.527c2.135,-0 3.038,-0.591 3.038,-2.119c0,-1.51 -2.726,-2.118 -8.177,-2.118c-11.528,0 -25.174,0.921 -28.194,0.921c-3.646,-0 -20.921,-0.921 -35.469,-0.921c-4.861,0 -7.899,0.313 -7.899,2.118c-0,1.233 0.625,2.119 2.43,2.119c1.823,-0 6.979,-0 11.528,1.232c10.608,3.021 15.156,6.354 21.823,23.333l74.271,185.816c5.764,14.566 7.274,18.803 10.92,18.803c3.021,-0 4.236,-4.844 12.725,-23.039c6.98,-14.843 20.608,-47.586 39.115,-91.857c15.451,-37.275 30.608,-73.663 33.941,-82.136c8.194,-20.625 12.743,-25.781 16.684,-28.507c5.747,-3.645 12.413,-3.645 14.531,-3.645c2.431,-0 3.646,-0.591 3.646,-2.119c0,-1.51 -1.823,-2.118 -5.139,-2.118c-8.802,0 -21.84,0.921 -23.663,0.921c-3.628,-0 -17.569,-0.921 -29.705,-0.921c-4.844,0 -6.666,0.608 -6.666,2.431c-0,1.528 1.51,1.806 3.333,1.806c3.333,-0 7.882,-0 11.528,1.232c3.02,1.493 3.941,4.531 3.941,6.962c-0,2.726 -1.216,6.962 -2.743,11.528c-6.65,21.823 -47.275,127.621 -64.862,168.229l-58.211,-155.208Z" style="fill:#231f20;fill-rule:nonzero;"/><path d="M247.653,219.758c-5.156,13.038 -10.295,22.118 -22.43,23.645c-2.118,0.296 -6.059,0.591 -7.882,0.591c-1.215,-0 -2.431,0.92 -2.431,2.135c0,1.511 1.823,2.136 5.157,2.136c10.92,-0 24.253,-0.921 26.979,-0.921c3.038,0 17.587,0.921 23.958,0.921c2.413,-0 3.941,-0.625 3.941,-2.136c0,-1.215 -0.608,-2.135 -2.726,-2.135l-2.43,-0c-4.549,-0 -9.097,-1.806 -9.097,-6.962c-0,-4.549 1.51,-10.92 3.941,-17.274l15.156,-41.233c0.608,-1.51 1.51,-2.118 2.726,-2.118l61.545,-0c1.51,-0 1.823,0.312 2.413,1.51l23.958,59.115c1.823,4.236 -0.903,6.371 -2.43,6.962c-1.216,0.625 -1.806,0.625 -1.806,1.84c0,1.51 4.236,1.51 9.392,1.806c18.49,0.625 38.195,0.625 42.136,0.625c3.038,-0 6.059,-0.625 6.059,-2.136c-0,-1.51 -1.806,-2.135 -3.333,-2.135c-2.726,-0 -6.667,-0.295 -10.608,-1.493c-5.764,-1.823 -13.038,-5.157 -22.743,-28.195c-16.372,-39.114 -59.115,-145.521 -63.958,-156.423c-2.726,-5.764 -3.629,-9.41 -6.372,-9.41c-1.823,-0 -3.021,1.528 -6.354,10.017l-62.761,161.268Zm38.507,-53.959c-0.902,0 -1.215,-0.625 -0.902,-1.823l24.843,-70.625c1.528,-3.958 3.039,-3.958 4.549,0l26.372,70.625c0.312,1.198 0.312,1.823 -0.903,1.823l-53.959,0Z" style="fill:#231f20;fill-rule:nonzero;"/><path d="M483.207,127.9c0,-40.017 0,-47.292 0.313,-55.469c0.59,-9.097 2.118,-13.038 10,-14.548c3.021,-0.313 6.962,-0.608 8.785,-0.608c0.902,-0 2.118,-0.92 2.118,-1.823c-0,-1.528 -1.511,-2.118 -4.237,-2.118c-8.194,0 -28.194,0.59 -29.409,0.59c-1.511,0 -18.195,-0.59 -30.313,-0.59c-3.038,0 -4.253,0.59 -4.253,2.118c-0,0.903 1.215,2.118 2.135,2.118c2.413,0 6.962,0.313 9.08,0.608c8.802,1.215 10.313,5.469 10.92,14.253c0.608,8.177 0.608,15.452 0.608,55.469l-0,45.469c-0,24.861 -0,45.173 -1.511,55.781c-1.215,7.587 -1.823,12.431 -6.979,13.646c-2.413,0.607 -5.764,1.198 -8.177,1.198c-1.528,-0 -2.118,1.232 -2.118,2.135c0,1.511 1.511,2.136 4.236,2.136c4.236,-0 10,-0.313 15.452,-0.625c5.156,-0.296 9.704,-0.296 10.92,-0.296c7.882,0 16.979,0.296 29.097,0.608c12.431,0.608 27.292,0.903 46.389,0.903c14.253,-0 15.156,-0.903 16.979,-6.979c2.118,-7.57 3.924,-23.039 3.924,-25.764c-0,-2.726 -0.591,-3.941 -1.806,-3.941c-1.51,-0 -2.43,1.51 -2.726,3.351c-0.92,5.156 -3.038,10.59 -6.371,14.548c-6.372,7.57 -18.195,7.882 -32.136,7.882c-20.92,0 -31.215,-1.84 -35.468,-6.076c-4.844,-4.532 -5.452,-20 -5.452,-57.9l0,-46.076Z" style="fill:#231f20;fill-rule:nonzero;"/><path d="M621.129,173.37c0,24.862 0,45.174 -1.51,55.782c-1.216,7.569 -1.823,12.725 -6.979,13.646c-2.414,0.312 -5.764,1.197 -8.178,1.197c-1.527,0 -2.135,1.233 -2.135,2.119c0,1.527 1.528,2.135 4.254,2.135c4.236,-0 10.295,-0.295 15.451,-0.608c5.764,-0.295 10.92,-0.295 11.528,-0.295c3.941,0 10.902,0 22.135,0.608c10.903,0.295 26.372,0.903 46.372,0.903c10.312,-0 13.038,-0 14.861,-6.667c1.51,-5.469 3.628,-23.038 3.628,-24.861c0,-1.806 -0.295,-3.941 -1.805,-3.941c-1.528,-0 -2.136,0.903 -2.743,3.941c-1.511,10.312 -5.157,14.861 -12.118,17.899c-6.98,2.726 -19.705,2.726 -26.684,2.726c-26.372,-0 -31.216,-3.351 -31.823,-20.625c-0.313,-5.156 -0,-35.156 -0,-43.959l-0,-21.51c-0,-0.92 0.312,-1.84 1.805,-1.84c4.566,-0 33.056,0.312 40.33,1.232c10.295,1.198 12.726,4.237 13.646,7.882c1.215,3.334 1.215,6.042 1.215,8.473c0,1.527 0.59,2.448 1.806,2.448c1.823,-0 2.43,-2.744 2.43,-4.879c0,-1.806 0.608,-11.51 1.216,-16.667c0.607,-8.489 2.118,-12.725 2.118,-14.236c-0,-1.528 -0.608,-2.135 -1.511,-2.135c-0.903,-0 -2.118,1.528 -3.941,3.333c-2.725,2.743 -6.684,3.038 -13.038,3.646c-6.059,0.608 -41.233,0.608 -44.566,0.608c-1.51,-0 -1.51,-0.903 -1.51,-2.726l-0,-70.035c-0,-1.805 0.312,-2.725 1.51,-2.725c3.038,-0 33.958,0.295 38.507,0.92c14.549,1.805 17.274,3.628 19.097,7.882c1.215,3.038 1.511,7.274 1.511,9.079c-0,2.119 0.607,3.351 2.118,3.351c1.215,0 2.135,-1.528 2.43,-2.743c0.608,-3.038 1.216,-14.548 1.511,-16.962c0.607,-7.274 2.118,-10.312 2.118,-12.135c-0,-1.215 -0.295,-2.431 -1.198,-2.431c-1.215,0 -2.431,0.92 -3.646,1.216c-2.118,0.312 -6.962,1.215 -12.118,1.51c-6.059,0.313 -61.84,0 -63.663,0c-1.528,0 -18.802,-0.59 -30.92,-0.59c-3.039,-0 -4.254,0.59 -4.254,2.118c0,0.903 1.215,2.118 2.136,2.118c2.413,-0 6.961,0.312 9.079,0.608c8.802,1.215 10.313,5.468 10.921,14.253c0.607,8.177 0.607,15.451 0.607,55.469l0,45.468Z" style="fill:#231f20;fill-rule:nonzero;"/><path d="M796.343,91.515c8.194,9.097 38.194,40.625 69.114,73.072c28.195,29.393 66.702,67.292 69.427,69.723c14.844,13.646 17.587,15.764 20.313,15.764c1.823,-0 2.118,-1.511 2.118,-18.507l0.608,-150.955c-0,-15.469 0.607,-20.608 9.392,-22.431c3.038,-0.607 5.156,-0.607 6.371,-0.607c1.823,-0 3.039,-1.528 3.039,-2.431c-0,-1.528 -2.118,-1.806 -4.861,-1.806c-10.903,0 -19.705,0.591 -22.726,0.591c-3.038,-0 -15.764,-0.591 -27.899,-0.591c-3.021,0 -5.157,0.278 -5.157,1.806c0,0.903 0.313,2.431 2.136,2.431c2.118,-0 8.177,0.312 13.038,1.198c8.177,1.527 9.687,7.291 10,23.958l2.726,129.149c-8.195,-8.507 -36.684,-39.114 -63.056,-66.406c-41.233,-42.431 -80.035,-83.663 -84.271,-87.899c-2.743,-2.726 -7.274,-7.882 -10.312,-7.882c-2.118,-0 -3.646,2.725 -3.646,13.038l-0,147.639c-0,23.316 -0.903,30.312 -7.57,32.118c-3.941,1.215 -8.802,1.51 -10.92,1.51c-1.198,0 -2.118,0.92 -2.118,2.118c0,1.841 1.511,2.136 4.236,2.136c12.136,-0 23.351,-0.903 25.782,-0.903c2.43,-0 13.038,0.903 28.194,0.903c3.021,-0 4.844,-0.608 4.844,-2.136c-0,-1.198 -0.92,-2.118 -2.118,-2.118c-2.431,0 -8.49,-0.295 -13.334,-1.51c-7.274,-1.806 -9.704,-8.177 -10.312,-29.393l-3.038,-121.579Z" style="fill:#231f20;fill-rule:nonzero;"/><path d="M1098.89,65.152l33.35,0.607c25.469,0.591 31.216,6.355 32.118,14.236l0.313,2.744c0.312,3.645 0.903,4.531 2.118,4.531c1.215,-0 2.43,-1.198 2.43,-3.334c0,-3.02 0.921,-21.51 0.921,-29.392c-0,-1.51 -0,-3.038 -1.216,-3.038c-1.215,-0 -3.646,0.608 -7.587,1.215c-4.236,0.608 -10.312,1.215 -19.097,1.215l-100.642,0c-3.038,0 -13.333,-0.312 -20.92,-1.215c-7.275,-0.92 -10,-3.038 -11.823,-3.038c-0.903,-0 -2.431,3.351 -2.726,4.861c-0.607,2.118 -5.764,25.156 -5.764,27.882c0,1.51 1.216,2.118 1.823,2.118c1.215,0 2.118,-0.295 2.726,-2.413c0.903,-1.823 1.215,-3.629 4.253,-8.195c3.941,-6.059 10.295,-7.864 26.962,-8.177l38.507,-0.607l0,108.212c0,24.861 0,45.173 -1.215,55.781c-0.903,7.587 -2.413,12.743 -7.882,13.958c-2.431,0.59 -5.452,1.198 -7.882,1.198c-1.51,0 -2.118,0.92 -2.118,1.823c-0,1.528 1.215,2.135 4.253,2.135c7.882,0 26.372,-0.92 27.57,-0.92c1.528,0 18.489,0.92 33.055,0.92c3.039,0 4.236,-0.92 4.236,-2.135c0,-0.903 -0.295,-2.118 -2.118,-2.118c-2.43,-0 -8.489,-0.59 -12.118,-1.215c-8.194,-1.216 -9.409,-6.059 -10.312,-13.646c-1.215,-10.608 -1.215,-30.92 -1.215,-55.781l-0,-108.212Z" style="fill:#231f20;fill-rule:nonzero;"/><path d="M1225.6,173.37c-0,24.862 -0,45.174 -1.511,55.782c-1.215,7.569 -1.822,12.725 -6.979,13.646c-2.413,0.312 -5.764,1.197 -8.177,1.197c-1.528,0 -2.135,1.233 -2.135,2.119c-0,1.527 1.528,2.135 4.253,2.135c4.236,-0 10.295,-0.295 15.452,-0.608c5.764,-0.295 10.92,-0.295 11.527,-0.295c3.941,0 10.903,0 22.136,0.608c10.903,0.295 26.371,0.903 46.371,0.903c10.313,-0 13.039,-0 14.862,-6.667c1.51,-5.469 3.628,-23.038 3.628,-24.861c-0,-1.806 -0.295,-3.941 -1.806,-3.941c-1.527,-0 -2.135,0.903 -2.743,3.941c-1.51,10.312 -5.156,14.861 -12.118,17.899c-6.979,2.726 -19.705,2.726 -26.684,2.726c-26.371,-0 -31.215,-3.351 -31.823,-20.625c-0.312,-5.156 0,-35.156 0,-43.959l0,-21.51c0,-0.92 0.313,-1.84 1.806,-1.84c4.566,-0 33.055,0.312 40.33,1.232c10.295,1.198 12.725,4.237 13.646,7.882c1.215,3.334 1.215,6.042 1.215,8.473c-0,1.527 0.59,2.448 1.805,2.448c1.823,-0 2.431,-2.744 2.431,-4.879c0,-1.806 0.608,-11.51 1.215,-16.667c0.608,-8.489 2.118,-12.725 2.118,-14.236c0,-1.528 -0.607,-2.135 -1.51,-2.135c-0.903,-0 -2.118,1.528 -3.941,3.333c-2.726,2.743 -6.684,3.038 -13.038,3.646c-6.059,0.608 -41.233,0.608 -44.566,0.608c-1.511,-0 -1.511,-0.903 -1.511,-2.726l0,-70.035c0,-1.805 0.313,-2.725 1.511,-2.725c3.038,-0 33.958,0.295 38.507,0.92c14.548,1.805 17.274,3.628 19.097,7.882c1.215,3.038 1.51,7.274 1.51,9.079c0,2.119 0.608,3.351 2.118,3.351c1.216,0 2.136,-1.528 2.431,-2.743c0.608,-3.038 1.215,-14.548 1.51,-16.962c0.608,-7.274 2.118,-10.312 2.118,-12.135c0,-1.215 -0.295,-2.431 -1.197,-2.431c-1.216,0 -2.431,0.92 -3.646,1.216c-2.118,0.312 -6.962,1.215 -12.118,1.51c-6.059,0.313 -61.841,0 -63.664,0c-1.527,0 -18.802,-0.59 -30.92,-0.59c-3.038,-0 -4.253,0.59 -4.253,2.118c-0,0.903 1.215,2.118 2.135,2.118c2.413,-0 6.962,0.312 9.08,0.608c8.802,1.215 10.313,5.468 10.92,14.253c0.608,8.177 0.608,15.451 0.608,55.469l-0,45.468Z" style="fill:#231f20;fill-rule:nonzero;"/><path d="M1642.12,222.487c0,5.156 -2.135,8.472 -6.059,10.607c-7.881,4.549 -23.645,6.372 -34.566,6.372c-27.881,-0 -55.468,-9.097 -79.427,-32.448c-10.607,-10.295 -32.135,-41.233 -32.135,-83.976c-0,-35.468 12.431,-63.038 30.017,-76.996c23.039,-18.177 45.782,-20 64.879,-20c39.097,-0 63.663,13.038 71.232,24.566c4.549,7.274 6.059,15.746 6.372,20c0.295,2.725 0.608,4.548 2.118,4.548c2.118,0 2.726,-1.51 2.726,-6.388c-0,-30.313 2.118,-38.785 2.118,-43.039c-0,-1.198 -0.59,-2.43 -3.629,-2.708c-7.586,-0.313 -18.194,-1.528 -24.566,-3.038c-5.746,-1.215 -27.274,-5.156 -46.371,-5.156c-23.351,-0 -53.351,2.118 -80.643,19.097c-26.979,16.979 -50.625,51.232 -50.625,99.739c0,37.882 17.587,70.33 36.077,86.389c33.646,29.41 76.701,32.448 99.739,32.448c17.587,0 44.862,-3.351 64.271,-13.663c3.629,-2.118 3.941,-2.726 3.941,-16.354l0,-33.959c0,-12.725 0,-21.822 0.591,-31.51c0.625,-10.625 3.038,-15.781 11.215,-17.309c3.646,-0.59 5.469,-0.885 7.587,-0.885c1.215,-0 2.43,-0.608 2.43,-1.823c0,-1.823 -1.51,-2.414 -4.861,-2.414c-9.097,0 -28.194,0.886 -29.705,0.886c-1.51,-0 -20.607,-0.886 -34.253,-0.886c-3.334,0 -4.844,0.591 -4.844,2.414c-0,1.215 1.215,1.823 2.431,1.823c2.708,-0 7.864,0.295 10.295,0.885c12.135,3.351 13.645,6.684 13.645,31.233l0,51.545Z" style="fill:#231f20;fill-rule:nonzero;"/><path d="M1722.15,150.329c-0,46.389 31.215,101.25 104.288,101.25c64.253,-0 106.996,-47.587 106.996,-105.191c0,-60.018 -45.468,-96.702 -105.486,-96.702c-73.663,0 -105.798,59.115 -105.798,100.643Zm27.587,-6.962c-0,-56.094 32.135,-83.976 76.701,-83.976c42.135,0 79.722,32.431 79.722,94.271c0,74.583 -48.194,87.327 -72.153,87.327c-48.194,-0 -84.27,-37.605 -84.27,-97.622Z" style="fill:#231f20;fill-rule:nonzero;"/><path d="M1997.4,91.515c8.195,9.097 38.195,40.625 69.115,73.072c28.194,29.393 66.701,67.292 69.427,69.723c14.844,13.646 17.587,15.764 20.313,15.764c1.823,-0 2.118,-1.511 2.118,-18.507l0.607,-150.955c0,-15.469 0.608,-20.608 9.393,-22.431c3.038,-0.607 5.156,-0.607 6.371,-0.607c1.823,-0 3.038,-1.528 3.038,-2.431c0,-1.528 -2.118,-1.806 -4.861,-1.806c-10.902,0 -19.705,0.591 -22.725,0.591c-3.039,-0 -15.764,-0.591 -27.9,-0.591c-3.021,0 -5.156,0.278 -5.156,1.806c0,0.903 0.313,2.431 2.135,2.431c2.119,-0 8.178,0.312 13.039,1.198c8.177,1.527 9.687,7.291 10,23.958l2.725,129.149c-8.194,-8.507 -36.684,-39.114 -63.055,-66.406c-41.233,-42.431 -80.035,-83.663 -84.271,-87.899c-2.743,-2.726 -7.274,-7.882 -10.313,-7.882c-2.118,-0 -3.645,2.725 -3.645,13.038l-0,147.639c-0,23.316 -0.903,30.312 -7.57,32.118c-3.941,1.215 -8.802,1.51 -10.92,1.51c-1.198,0 -2.118,0.92 -2.118,2.118c-0,1.841 1.51,2.136 4.236,2.136c12.136,-0 23.351,-0.903 25.781,-0.903c2.431,-0 13.039,0.903 28.195,0.903c3.021,-0 4.844,-0.608 4.844,-2.136c-0,-1.198 -0.921,-2.118 -2.119,-2.118c-2.43,0 -8.489,-0.295 -13.333,-1.51c-7.274,-1.806 -9.705,-8.177 -10.312,-29.393l-3.039,-121.579Z" style="fill:#231f20;fill-rule:nonzero;"/><path d="M2317.23,251.275c3.333,0.312 6.667,0.312 10.313,0.312c17.274,0 37.274,-1.51 48.194,-5.746c4.549,-1.84 5.156,-2.743 6.667,-7.587c2.725,-8.802 6.371,-31.232 6.371,-33.038c0,-1.84 -1.215,-3.646 -2.43,-3.646c-1.823,0 -2.118,0.903 -2.726,3.646c-0.92,4.844 -4.549,15.746 -10.312,21.51c-10.608,10.608 -23.941,12.118 -43.959,12.118c-56.979,0 -96.094,-43.941 -96.094,-93.368c0,-26.076 4.254,-49.097 23.941,-67.291c9.41,-8.802 25.782,-17.882 60.035,-17.882c23.646,-0 43.038,6.354 52.448,14.236c6.962,5.469 11.215,15.781 11.215,25.781c0,3.646 0.295,5.452 2.118,5.452c1.511,-0 2.726,-1.528 3.039,-5.452c0.295,-3.646 0.295,-17.899 0.607,-26.389c0.608,-9.392 1.198,-12.43 1.198,-14.548c0,-1.511 -0.59,-2.726 -3.333,-2.726c-8.785,-0.313 -17.275,-2.726 -27.275,-4.236c-13.038,-2.118 -28.194,-2.726 -38.802,-2.726c-40.937,0 -65.191,12.118 -81.25,27.587c-23.645,23.038 -30,53.038 -30,70.312c0,24.566 6.355,53.976 32.431,76.407c16.979,14.548 37.882,23.646 66.389,26.684l-19.41,15.746c-2.726,2.136 -3.941,3.334 -3.941,4.254c0,1.198 1.215,1.823 4.549,2.725c17.899,5.157 21.823,13.334 21.823,22.136c-0,10.92 -11.806,17.274 -22.431,18.489c-3.333,0.313 -6.059,0.591 -6.059,3.334c0,1.528 1.823,2.413 3.941,2.413c5.764,-0 15.469,-1.806 23.646,-5.434c10.312,-4.254 21.528,-13.038 21.528,-24.879c-0,-12.43 -11.528,-19.704 -30.313,-21.51c2.118,-2.118 11.823,-11.233 17.882,-16.684Z" style="fill:#231f20;fill-rule:nonzero;"/><path d="M2429.99,219.758c-5.156,13.038 -10.295,22.118 -22.43,23.645c-2.118,0.296 -6.059,0.591 -7.882,0.591c-1.216,-0 -2.431,0.92 -2.431,2.135c0,1.511 1.823,2.136 5.156,2.136c10.921,-0 24.254,-0.921 26.98,-0.921c3.038,0 17.586,0.921 23.958,0.921c2.413,-0 3.941,-0.625 3.941,-2.136c-0,-1.215 -0.608,-2.135 -2.726,-2.135l-2.43,-0c-4.549,-0 -9.098,-1.806 -9.098,-6.962c0,-4.549 1.511,-10.92 3.941,-17.274l15.157,-41.233c0.607,-1.51 1.51,-2.118 2.725,-2.118l61.546,-0c1.51,-0 1.822,0.312 2.413,1.51l23.958,59.115c1.823,4.236 -0.903,6.371 -2.431,6.962c-1.215,0.625 -1.805,0.625 -1.805,1.84c-0,1.51 4.236,1.51 9.392,1.806c18.49,0.625 38.195,0.625 42.136,0.625c3.038,-0 6.059,-0.625 6.059,-2.136c-0,-1.51 -1.806,-2.135 -3.334,-2.135c-2.725,-0 -6.666,-0.295 -10.607,-1.493c-5.764,-1.823 -13.038,-5.157 -22.743,-28.195c-16.372,-39.114 -59.115,-145.521 -63.959,-156.423c-2.725,-5.764 -3.628,-9.41 -6.371,-9.41c-1.823,-0 -3.021,1.528 -6.354,10.017l-62.761,161.268Zm38.507,-53.959c-0.903,0 -1.215,-0.625 -0.903,-1.823l24.844,-70.625c1.528,-3.958 3.038,-3.958 4.549,0l26.371,70.625c0.313,1.198 0.313,1.823 -0.902,1.823l-53.959,0Z" style="fill:#231f20;fill-rule:nonzero;"/><path d="M2665.54,127.9c0,-40.017 0,-47.292 0.313,-55.469c0.59,-9.097 2.118,-13.038 10,-14.548c3.02,-0.313 6.961,-0.608 8.784,-0.608c0.903,-0 2.118,-0.92 2.118,-1.823c0,-1.528 -1.51,-2.118 -4.236,-2.118c-8.194,0 -28.194,0.59 -29.409,0.59c-1.511,0 -18.195,-0.59 -30.313,-0.59c-3.038,0 -4.253,0.59 -4.253,2.118c-0,0.903 1.215,2.118 2.135,2.118c2.413,0 6.962,0.313 9.08,0.608c8.802,1.215 10.312,5.469 10.92,14.253c0.608,8.177 0.608,15.452 0.608,55.469l-0,45.469c-0,24.861 -0,45.173 -1.511,55.781c-1.215,7.587 -1.823,12.431 -6.979,13.646c-2.413,0.607 -5.764,1.198 -8.177,1.198c-1.528,-0 -2.118,1.232 -2.118,2.135c-0,1.511 1.51,2.136 4.236,2.136c4.236,-0 10,-0.313 15.451,-0.625c5.157,-0.296 9.705,-0.296 10.921,-0.296c7.881,0 16.979,0.296 29.097,0.608c12.43,0.608 27.291,0.903 46.389,0.903c14.253,-0 15.156,-0.903 16.979,-6.979c2.118,-7.57 3.923,-23.039 3.923,-25.764c0,-2.726 -0.59,-3.941 -1.805,-3.941c-1.511,-0 -2.431,1.51 -2.726,3.351c-0.92,5.156 -3.038,10.59 -6.371,14.548c-6.372,7.57 -18.195,7.882 -32.136,7.882c-20.92,0 -31.215,-1.84 -35.469,-6.076c-4.843,-4.532 -5.451,-20 -5.451,-57.9l0,-46.076Z" style="fill:#231f20;fill-rule:nonzero;"/><path d="M2799.23,84.853c-3.941,-10.312 -7.274,-18.194 -7.274,-21.51c-0,-1.841 0.312,-3.351 3.038,-4.566c2.431,-0.903 6.667,-1.198 9.688,-1.198c1.822,-0 2.743,-1.233 2.743,-2.431c-0,-1.215 -2.431,-1.805 -7.275,-1.805c-10.312,-0 -22.135,0.59 -24.861,0.59c-3.333,-0 -18.489,-0.59 -31.232,-0.59c-4.237,-0 -6.962,0.277 -6.962,1.805c-0,0.903 0.607,2.431 2.118,2.431c1.51,-0 6.059,-0 10.312,0.903c8.785,2.135 12.431,4.861 18.49,19.409l65.469,157.934c5.156,12.431 6.979,15.764 10.017,15.764c2.726,0 4.236,-3.941 11.51,-19.409c6.077,-12.726 17.882,-40.625 34.254,-78.212c13.646,-31.528 26.684,-62.448 29.705,-69.723c6.979,-17.586 11.215,-21.215 14.861,-23.628c4.844,-3.038 10.92,-3.038 12.726,-3.038c2.118,-0 3.038,-1.233 3.038,-2.431c-0,-1.215 -1.511,-1.805 -4.236,-1.805c-7.9,-0 -19.41,0.59 -20.921,0.59c-3.333,-0 -15.468,-0.59 -26.076,-0.59c-4.236,-0 -6.059,0.59 -6.059,2.118c0,1.198 1.51,2.118 3.038,2.118c3.021,-0 6.059,-0 9.08,0.903c2.726,0.902 3.646,3.333 3.646,5.451c-0,2.135 -1.215,5.764 -2.431,9.705c-5.764,18.489 -40.607,106.406 -56.076,140.972l-50.33,-129.757Z" style="fill:#231f20;fill-rule:nonzero;"/><path d="M2989,173.37c0,24.862 0,45.174 -1.51,55.782c-1.216,7.569 -1.823,12.725 -6.979,13.646c-2.414,0.312 -5.764,1.197 -8.178,1.197c-1.527,0 -2.135,1.233 -2.135,2.119c0,1.527 1.528,2.135 4.254,2.135c4.236,-0 10.295,-0.295 15.451,-0.608c5.764,-0.295 10.92,-0.295 11.528,-0.295c3.941,0 10.902,0 22.135,0.608c10.903,0.295 26.372,0.903 46.372,0.903c10.312,-0 13.038,-0 14.861,-6.667c1.51,-5.469 3.628,-23.038 3.628,-24.861c0,-1.806 -0.295,-3.941 -1.805,-3.941c-1.528,-0 -2.136,0.903 -2.743,3.941c-1.511,10.312 -5.157,14.861 -12.118,17.899c-6.98,2.726 -19.705,2.726 -26.684,2.726c-26.372,-0 -31.216,-3.351 -31.823,-20.625c-0.313,-5.156 -0,-35.156 -0,-43.959l-0,-21.51c-0,-0.92 0.312,-1.84 1.805,-1.84c4.566,-0 33.056,0.312 40.33,1.232c10.295,1.198 12.726,4.237 13.646,7.882c1.215,3.334 1.215,6.042 1.215,8.473c0,1.527 0.59,2.448 1.806,2.448c1.823,-0 2.43,-2.744 2.43,-4.879c0,-1.806 0.608,-11.51 1.216,-16.667c0.607,-8.489 2.118,-12.725 2.118,-14.236c-0,-1.528 -0.608,-2.135 -1.511,-2.135c-0.903,-0 -2.118,1.528 -3.941,3.333c-2.725,2.743 -6.684,3.038 -13.038,3.646c-6.059,0.608 -41.233,0.608 -44.566,0.608c-1.51,-0 -1.51,-0.903 -1.51,-2.726l-0,-70.035c-0,-1.805 0.312,-2.725 1.51,-2.725c3.038,-0 33.958,0.295 38.507,0.92c14.549,1.805 17.274,3.628 19.097,7.882c1.215,3.038 1.511,7.274 1.511,9.079c-0,2.119 0.607,3.351 2.118,3.351c1.215,0 2.135,-1.528 2.43,-2.743c0.608,-3.038 1.216,-14.548 1.511,-16.962c0.607,-7.274 2.118,-10.312 2.118,-12.135c-0,-1.215 -0.295,-2.431 -1.198,-2.431c-1.215,0 -2.431,0.92 -3.646,1.216c-2.118,0.312 -6.962,1.215 -12.118,1.51c-6.059,0.313 -61.84,0 -63.663,0c-1.528,0 -18.802,-0.59 -30.92,-0.59c-3.039,-0 -4.254,0.59 -4.254,2.118c0,0.903 1.215,2.118 2.136,2.118c2.413,-0 6.961,0.312 9.079,0.608c8.802,1.215 10.313,5.468 10.921,14.253c0.607,8.177 0.607,15.451 0.607,55.469l0,45.468Z" style="fill:#231f20;fill-rule:nonzero;"/><path d="M3172.4,251.581c14.549,-0 31.216,-1.806 42.431,-9.08c19.097,-12.431 24.861,-28.82 24.861,-43.976c-0,-22.118 -11.215,-40 -43.646,-62.135l-7.587,-5.157c-26.371,-17.882 -34.548,-27.274 -34.548,-43.646c-0,-18.194 16.059,-27.899 35.468,-27.899c23.941,0 32.743,9.705 34.549,12.743c1.528,2.726 3.646,9.688 3.941,12.726c0.313,2.118 0.608,3.333 2.431,3.333c1.822,0 2.135,-1.823 2.135,-5.764c-0,-17.569 1.198,-26.076 1.198,-27.274c-0,-1.528 -0.608,-1.823 -2.726,-1.823c-2.118,0 -4.253,0 -9.392,-1.215c-6.372,-1.511 -16.979,-3.021 -27.587,-3.021c-35.174,0 -59.115,18.177 -59.115,48.49c0,17.899 9.393,33.663 38.195,55.173l12.118,9.115c23.646,17.569 33.646,26.354 33.646,44.861c-0,19.392 -13.629,34.236 -40,34.236c-17.9,0 -37.9,-6.667 -42.153,-25.469c-0.903,-3.628 -0.903,-7.257 -0.903,-9.392c0,-2.118 -0.903,-3.021 -2.413,-3.021c-1.528,0 -2.135,1.528 -2.135,4.254c-0.296,4.236 -1.511,14.548 -1.511,27.274c0,6.962 0.295,7.882 3.941,9.705c10.92,5.156 26.372,6.962 38.802,6.962Z" style="fill:#231f20;fill-rule:nonzero;"/></svg>